<?xml version="1.0" standalone="no"?><!DOCTYPE svg PUBLIC "-//W3C//DTD SVG 1.1//EN" "http://www.w3.org/Graphics/SVG/1.1/DTD/svg11.dtd"><svg t="1595987157136" class="icon" viewBox="0 0 1024 1024" version="1.1" xmlns="http://www.w3.org/2000/svg" p-id="8291" xmlns:xlink="http://www.w3.org/1999/xlink" width="200" height="200"><defs><style type="text/css"></style></defs><path d="M626.062222 654.980741c-5.499259 0-10.903704-2.085926-15.075555-6.257778L496.924444 534.565926c-8.343704-8.343704-8.343704-21.807407 0-30.151111s21.807407-8.343704 30.151112 0l114.062222 114.157037c8.343704 8.343704 8.343704 21.807407 0 30.151111-4.171852 4.171852-9.576296 6.257778-15.075556 6.257778zM782.127407 896c-5.499259 0-10.903704-2.085926-15.075555-6.257778l-91.591111-91.591111c-8.343704-8.343704-8.343704-21.807407 0-30.151111s21.807407-8.343704 30.151111 0l91.591111 91.591111c8.343704 8.343704 8.343704 21.807407 0 30.151111-4.171852 4.171852-9.576296 6.257778-15.075556 6.257778zM233.244444 896c-5.499259 0-10.903704-2.085926-15.075555-6.257778-8.343704-8.343704-8.343704-21.807407 0-30.151111l91.591111-91.591111c8.343704-8.343704 21.807407-8.343704 30.151111 0s8.343704 21.807407 0 30.151111L248.414815 889.742222c-4.171852 4.171852-9.671111 6.257778-15.170371 6.257778z" p-id="8292"></path><path d="M512 229.925926c39.253333 0 77.274074 7.68 113.019259 22.85037 34.607407 14.601481 65.611852 35.555556 92.34963 62.293334 26.642963 26.737778 47.597037 57.742222 62.293333 92.349629 15.17037 35.745185 22.85037 73.860741 22.850371 113.114074s-7.68 77.274074-22.850371 113.114074c-14.601481 34.607407-35.555556 65.706667-62.293333 92.34963-26.642963 26.737778-57.742222 47.691852-92.34963 62.293333-35.745185 15.17037-73.765926 22.85037-113.019259 22.850371s-77.274074-7.68-113.019259-22.850371c-34.607407-14.601481-65.611852-35.555556-92.34963-62.293333-26.642963-26.737778-47.597037-57.742222-62.293333-92.34963-15.17037-35.745185-22.85037-73.860741-22.850371-113.114074s7.68-77.274074 22.850371-113.114074c14.601481-34.607407 35.555556-65.706667 62.293333-92.349629 26.642963-26.737778 57.742222-47.691852 92.34963-62.293334 35.745185-15.17037 73.765926-22.85037 113.019259-22.85037m0-42.666667c-183.940741 0-333.084444 149.143704-333.084444 333.17926S328.059259 853.617778 512 853.617778 845.084444 704.474074 845.084444 520.438519 695.940741 187.259259 512 187.259259z" p-id="8293"></path><path d="M512 540.823704c-11.757037 0-21.333333-9.576296-21.333333-21.333334V311.277037c0-11.757037 9.576296-21.333333 21.333333-21.333333s21.333333 9.576296 21.333333 21.333333v208.213333c0 11.757037-9.576296 21.333333-21.333333 21.333334zM851.437037 327.964444c-5.499259 0-10.903704-2.085926-15.075556-6.257777L702.293333 187.638519c-3.982222-3.982222-6.257778-9.386667-6.257777-15.075556s2.275556-11.093333 6.257777-15.075556c41.623704-41.623704 112.260741-38.58963 157.582223 6.731852 21.617778 21.617778 34.417778 49.682963 35.934814 79.075556 1.611852 30.151111-8.817778 58.026667-29.202963 78.506666-4.266667 4.077037-9.671111 6.162963-15.17037 6.162963zM750.459259 175.502222l97.943704 97.943704c3.602963-8.533333 5.214815-18.014815 4.645926-28.065185-0.948148-18.773333-9.386667-36.977778-23.514074-51.105185-22.471111-22.471111-54.328889-29.202963-79.075556-18.773334zM172.562963 327.964444c-5.499259 0-10.903704-2.085926-15.075556-6.257777-20.48-20.48-30.814815-48.355556-29.202963-78.506667 1.517037-29.297778 14.317037-57.362963 35.934815-79.075556 45.321481-45.321481 115.958519-48.260741 157.582222-6.731851 3.982222 3.982222 6.257778 9.386667 6.257778 15.075555s-2.275556 11.093333-6.257778 15.075556L187.638519 321.706667c-4.171852 4.171852-9.576296 6.257778-15.075556 6.257777z m76.515556-157.202963c-19.057778 0-39.158519 7.964444-54.708149 23.608889-14.222222 14.222222-22.565926 32.331852-23.514074 51.105186-0.568889 10.05037 1.137778 19.531852 4.645926 28.065185l97.943704-97.943704c-7.585185-3.318519-15.834074-4.835556-24.367407-4.835556z" p-id="8294"></path></svg>