<?xml version="1.0" standalone="no"?><!DOCTYPE svg PUBLIC "-//W3C//DTD SVG 1.1//EN" "http://www.w3.org/Graphics/SVG/1.1/DTD/svg11.dtd"><svg t="1594694544241" class="icon" viewBox="0 0 1024 1024" version="1.1" xmlns="http://www.w3.org/2000/svg" p-id="1292" xmlns:xlink="http://www.w3.org/1999/xlink" width="200" height="200"><defs><style type="text/css"></style></defs><path d="M427.52 322.56h179.2c11.264 0 20.48-9.216 20.48-20.48s-9.216-20.48-20.48-20.48h-179.2c-11.264 0-20.48 9.216-20.48 20.48s9.216 20.48 20.48 20.48z" p-id="1293" fill="#707070"></path><path d="M860.16 163.84c-11.264 0-20.48 9.216-20.48 20.48v97.28h-148.48c-11.264 0-20.48 9.216-20.48 20.48s9.216 20.48 20.48 20.48h148.48v609.28h-211.456c-9.728-57.856-60.416-102.4-121.344-102.4s-111.616 44.544-121.344 102.4H184.32V322.56h153.6c11.264 0 20.48-9.216 20.48-20.48s-9.216-20.48-20.48-20.48H184.32V92.16h206.336c9.728 57.856 60.416 102.4 121.344 102.4s111.616-44.544 121.344-102.4H727.04c11.264 0 20.48-9.216 20.48-20.48s-9.216-20.48-20.48-20.48h-133.12v20.48c0 45.056-36.864 81.92-81.92 81.92s-81.92-36.864-81.92-81.92v-20.48H184.32c-22.528 0-40.96 18.432-40.96 40.96v839.68c0 22.528 18.432 40.96 40.96 40.96h240.64v-20.48c0-45.056 36.864-81.92 81.92-81.92s81.92 36.864 81.92 81.92v20.48h250.88c22.528 0 40.96-18.432 40.96-40.96V184.32c0-11.264-9.216-20.48-20.48-20.48z" p-id="1294" fill="#707070"></path><path d="M860.16 71.68m-20.48 0a20.48 20.48 0 1 0 40.96 0 20.48 20.48 0 1 0-40.96 0Z" p-id="1295" fill="#707070"></path><path d="M619.52 599.04c11.264 0 20.48-9.216 20.48-20.48s-9.216-20.48-20.48-20.48h-58.88l61.44-118.784c5.12-10.24 1.536-22.528-8.704-27.648s-22.528-1.536-27.648 8.704l-61.952 119.296-65.536-119.296c-5.632-9.728-17.92-13.312-27.648-8.192-9.728 5.632-13.824 17.92-8.192 27.648L486.912 558.08H424.96c-11.264 0-20.48 9.216-20.48 20.48s9.216 20.48 20.48 20.48h76.8v25.6H424.96c-11.264 0-20.48 9.216-20.48 20.48s9.216 20.48 20.48 20.48h76.8v71.68c0 11.264 9.216 20.48 20.48 20.48s20.48-9.216 20.48-20.48v-71.68h76.8c11.264 0 20.48-9.216 20.48-20.48s-9.216-20.48-20.48-20.48h-76.8v-25.6h76.8z" p-id="1296" fill="#707070"></path></svg>